<svg 
 xmlns="http://www.w3.org/2000/svg"
 xmlns:xlink="http://www.w3.org/1999/xlink"
 width="18px" height="19px">
<defs>


</defs>
<path   fill="#96a6ee"
 d="M16.719,18.999 L1.282,18.999 L-0.005,18.999 L-0.005,2.247 L2.569,2.281 L2.569,2.951 C2.569,4.057 3.434,4.957 4.499,4.957 C5.563,4.957 6.429,4.056 6.429,2.951 L6.429,2.281 L11.577,2.281 L11.577,2.951 C11.577,4.056 12.439,4.957 13.506,4.957 C14.571,4.957 15.435,4.056 15.435,2.951 L15.435,2.281 L17.986,2.281 L18.005,18.995 L16.719,18.999 ZM16.719,6.963 L1.282,6.963 L1.282,17.665 L16.719,17.665 L16.719,6.963 ZM5.238,13.348 L3.212,13.348 L3.212,11.489 L5.238,11.489 L5.238,13.348 ZM5.238,16.499 L3.212,16.499 L3.212,14.640 L5.238,14.640 L5.238,16.499 ZM8.460,10.259 L6.432,10.259 L6.432,8.399 L8.460,8.399 L8.460,10.259 ZM8.460,13.348 L6.432,13.348 L6.432,11.489 L8.460,11.489 L8.460,13.348 ZM8.460,16.499 L6.432,16.499 L6.432,14.640 L8.460,14.640 L8.460,16.499 ZM11.739,10.259 L9.709,10.259 L9.709,8.399 L11.739,8.399 L11.739,10.259 ZM11.739,13.348 L9.709,13.348 L9.709,11.489 L11.739,11.489 L11.739,13.348 ZM11.739,16.499 L9.709,16.499 L9.709,14.640 L11.739,14.640 L11.739,16.499 ZM14.778,10.259 L12.750,10.259 L12.750,8.399 L14.778,8.399 L14.778,10.259 ZM14.778,13.348 L12.750,13.348 L12.750,11.489 L14.778,11.489 L14.778,13.348 ZM14.778,16.499 L12.750,16.499 L12.750,14.640 L14.778,14.640 L14.778,16.499 ZM13.484,4.011 C12.783,4.011 12.217,3.425 12.217,2.696 L12.217,1.319 C12.217,0.588 12.783,0.001 13.484,0.001 C14.185,0.001 14.751,0.589 14.751,1.319 L14.751,2.695 C14.751,3.425 14.183,4.011 13.484,4.011 ZM4.479,4.011 C3.778,4.011 3.212,3.425 3.212,2.696 L3.212,1.319 C3.212,0.588 3.778,0.001 4.479,0.001 C5.179,0.001 5.746,0.588 5.747,1.319 L5.747,2.695 C5.747,3.425 5.179,4.011 4.479,4.011 Z"/>
</svg>