<svg 
 xmlns="http://www.w3.org/2000/svg"
 xmlns:xlink="http://www.w3.org/1999/xlink"
 width="23px" height="31px">
<defs>
<filter id="Filter_0">
    <feFlood flood-color="rgb(72, 76, 131)" flood-opacity="1" result="floodOut" />
    <feComposite operator="atop" in="floodOut" in2="SourceGraphic" result="compOut" />
    <feBlend mode="normal" in="compOut" in2="SourceGraphic" />
</filter>

</defs>
<g filter="url(#Filter_0)">
<path fill-rule="evenodd"  fill="rgb(0, 0, 0)"
 d="M22.172,31.000 L0.828,31.000 C0.371,31.000 0.000,30.637 0.000,30.190 L0.000,10.266 C0.000,9.819 0.371,9.456 0.828,9.456 L7.634,9.456 C8.091,9.456 8.462,9.819 8.462,10.266 C8.462,10.714 8.091,11.076 7.634,11.076 L1.656,11.076 L1.656,29.380 L21.344,29.380 L21.344,11.076 L15.366,11.076 C14.909,11.076 14.538,10.714 14.538,10.266 C14.538,9.819 14.909,9.456 15.366,9.456 L22.172,9.456 C22.629,9.456 23.000,9.819 23.000,10.266 L23.000,30.190 C23.000,30.637 22.629,31.000 22.172,31.000 ZM16.657,6.665 C16.445,6.665 16.233,6.586 16.071,6.428 L12.328,2.765 L12.328,18.907 C12.328,19.354 11.957,19.717 11.500,19.717 C11.043,19.717 10.672,19.354 10.672,18.907 L10.672,2.765 L6.929,6.428 C6.605,6.744 6.081,6.744 5.758,6.428 C5.434,6.111 5.434,5.598 5.758,5.282 L10.915,0.237 C11.238,-0.079 11.762,-0.079 12.085,0.237 L17.242,5.282 C17.566,5.598 17.566,6.111 17.242,6.428 C17.081,6.586 16.869,6.665 16.657,6.665 Z"/>
</g>
</svg>