<svg 
 xmlns="http://www.w3.org/2000/svg"
 xmlns:xlink="http://www.w3.org/1999/xlink"
 width="70px" height="61px">
<defs>
<filter id="Filter_0">
    <feFlood flood-color="rgb(72, 76, 131)" flood-opacity="1" result="floodOut" />
    <feComposite operator="atop" in="floodOut" in2="SourceGraphic" result="compOut" />
    <feBlend mode="normal" in="compOut" in2="SourceGraphic" />
</filter>

</defs>
<g filter="url(#Filter_0)">
<path fill-rule="evenodd"  fill="rgb(0, 0, 0)"
 d="M65.625,61.000 L13.125,61.000 C10.709,61.000 8.750,59.049 8.750,56.643 L8.750,13.071 C8.750,10.665 10.709,8.714 13.125,8.714 L65.625,8.714 C68.041,8.714 70.000,10.665 70.000,13.071 L70.000,56.643 C70.000,59.049 68.041,61.000 65.625,61.000 ZM67.083,47.078 L52.500,32.554 L46.239,38.789 L44.177,36.735 L51.469,29.473 C52.038,28.906 52.962,28.906 53.531,29.473 L67.083,42.970 L67.083,13.071 C67.083,12.269 66.430,11.619 65.625,11.619 L13.125,11.619 C12.320,11.619 11.667,12.269 11.667,13.071 L11.667,48.780 L31.052,29.473 C31.622,28.906 32.545,28.906 33.114,29.473 L56.448,52.711 L54.386,54.765 L32.083,32.554 L11.667,52.887 L11.667,56.643 C11.667,57.445 12.320,58.095 13.125,58.095 L65.625,58.095 C66.430,58.095 67.083,57.445 67.083,56.643 L67.083,47.078 ZM35.000,21.786 C35.000,17.775 38.265,14.524 42.292,14.524 C46.319,14.524 49.583,17.775 49.583,21.786 C49.579,25.794 46.317,29.043 42.292,29.048 C38.265,29.048 35.000,25.796 35.000,21.786 ZM46.667,21.786 C46.667,19.379 44.708,17.429 42.292,17.429 C39.875,17.429 37.917,19.379 37.917,21.786 C37.917,24.192 39.875,26.143 42.292,26.143 C44.708,26.143 46.667,24.192 46.667,21.786 ZM61.250,4.357 C61.250,3.555 60.597,2.905 59.792,2.905 L4.375,2.905 C3.570,2.905 2.917,3.555 2.917,4.357 L2.917,50.833 C2.917,51.635 3.570,52.286 4.375,52.286 L5.833,52.286 L5.833,55.190 L4.375,55.190 C1.959,55.190 -0.000,53.240 -0.000,50.833 L-0.000,4.357 C-0.000,1.951 1.959,0.000 4.375,0.000 L59.792,0.000 C62.208,0.000 64.167,1.951 64.167,4.357 L64.167,5.810 L61.250,5.810 L61.250,4.357 Z"/>
</g>
</svg>