<svg 
 xmlns="http://www.w3.org/2000/svg"
 xmlns:xlink="http://www.w3.org/1999/xlink"
 width="22px" height="28px">
<defs>
<filter id="Filter_0">
    <feFlood flood-color="rgb(72, 76, 131)" flood-opacity="1" result="floodOut" />
    <feComposite operator="atop" in="floodOut" in2="SourceGraphic" result="compOut" />
    <feBlend mode="normal" in="compOut" in2="SourceGraphic" />
</filter>

</defs>
<g filter="url(#Filter_0)">
<path fill-rule="evenodd"  fill="rgb(0, 0, 0)"
 d="M19.828,23.103 C19.406,23.103 19.069,22.759 19.069,22.329 C19.069,21.899 19.406,21.555 19.828,21.555 C20.188,21.555 20.481,21.257 20.481,20.890 L20.481,2.213 C20.481,1.846 20.188,1.548 19.828,1.548 L7.056,1.548 C6.696,1.548 6.403,1.846 6.403,2.213 C6.403,2.643 6.065,2.988 5.643,2.988 C5.221,2.988 4.884,2.643 4.884,2.213 C4.884,0.992 5.857,-0.000 7.056,-0.000 L19.828,-0.000 C21.027,-0.000 22.000,0.992 22.000,2.213 L22.000,20.890 C22.000,22.111 21.027,23.103 19.828,23.103 ZM17.116,7.110 L17.116,25.787 C17.116,27.008 16.143,28.000 14.944,28.000 L2.172,28.000 C0.973,28.000 0.000,27.008 0.000,25.787 L0.000,7.110 C0.000,5.889 0.973,4.897 2.172,4.897 L14.944,4.897 C16.137,4.897 17.110,5.889 17.116,7.110 ZM2.166,6.445 C1.806,6.445 1.514,6.743 1.514,7.110 L1.514,25.781 C1.514,26.148 1.806,26.446 2.166,26.446 L14.939,26.446 C15.299,26.446 15.591,26.148 15.591,25.781 L15.591,7.110 C15.591,6.743 15.299,6.445 14.939,6.445 L2.166,6.445 Z"/>
</g>
</svg>