<svg xmlns="http://www.w3.org/2000/svg" xmlns:xlink="http://www.w3.org/1999/xlink" width="15" height="20" viewBox="0 0 15 20">
  <metadata><?xpacket begin="﻿" id="W5M0MpCehiHzreSzNTczkc9d"?>
<x:xmpmeta xmlns:x="adobe:ns:meta/" x:xmptk="Adobe XMP Core 5.6-c142 79.160924, 2017/07/13-01:06:39        ">
   <rdf:RDF xmlns:rdf="http://www.w3.org/1999/02/22-rdf-syntax-ns#">
      <rdf:Description rdf:about=""/>
   </rdf:RDF>
</x:xmpmeta>
                                                                                                    
                                                                                                    
                                                                                                    
                                                                                                    
                                                                                                    
                                                                                                    
                                                                                                    
                                                                                                    
                                                                                                    
                                                                                                    
                                                                                                    
                                                                                                    
                                                                                                    
                                                                                                    
                                                                                                    
                                                                                                    
                                                                                                    
                                                                                                    
                                                                                                    
                                                                                                    
                           
<?xpacket end="w"?></metadata>
<defs>
    <style>
      .cls-1 {
        fill-rule: evenodd;
        filter: url(#filter);
      }
    </style>
    <filter id="filter" x="800" y="605" width="15" height="20" filterUnits="userSpaceOnUse">
      <feFlood result="flood" flood-color="#484c83"/>
      <feComposite result="composite" operator="in" in2="SourceGraphic"/>
      <feBlend result="blend" in2="SourceGraphic"/>
    </filter>
  </defs>
  <path id="Forma_1" data-name="Forma 1" class="cls-1" d="M807.5,614.781c2.192,0,3.97-2.189,3.97-4.89S810.887,605,807.5,605s-3.971,2.19-3.971,4.891S805.307,614.781,807.5,614.781Zm-7.5,7.468c0-.165,0-0.047,0,0h0Zm15,0.128c0-.045,0-0.312,0,0h0Zm-0.009-.326c-0.073-4.705-.679-6.046-5.316-6.894a3.226,3.226,0,0,1-4.349,0c-4.586.839-5.229,2.16-5.313,6.741a0.916,0.916,0,0,1-.012.351c0,0.081,0,.232,0,0.494,0,0,1.1,2.257,7.5,2.257s7.5-2.257,7.5-2.257v-0.366A3.028,3.028,0,0,1,814.99,622.051Z" transform="translate(-800 -605)"/>
</svg>
